<?xml version="1.0" encoding="UTF-8" standalone="no"?>
<svg
   xmlns:dc="http://purl.org/dc/elements/1.1/"
   xmlns:cc="http://creativecommons.org/ns#"
   xmlns:rdf="http://www.w3.org/1999/02/22-rdf-syntax-ns#"
   xmlns:svg="http://www.w3.org/2000/svg"
   xmlns="http://www.w3.org/2000/svg"
   id="svg8"
   version="1.1"
   viewBox="0 0 209.31059 115"
   height="115mm"
   width="209.31059mm">
  <defs
     id="defs2" />
  <metadata
     id="metadata5">
    <rdf:RDF>
      <cc:Work
         rdf:about="">
        <dc:format>image/svg+xml</dc:format>
        <dc:type
           rdf:resource="http://purl.org/dc/dcmitype/StillImage" />
        <dc:title></dc:title>
      </cc:Work>
    </rdf:RDF>
  </metadata>
  <g
     transform="translate(-0.48007479,-63.6)"
     id="layer1">
    <g
       style="fill:#008080;fill-opacity:0.34513275"
       id="g909">
      <path
         points="0.48006918,178.59854 61.406149,151.48492 61.406149,112.00107 0.48006918,139.11469 "
         d="m 0.48006918,139.11469 v 39.48385 L 61.406149,151.48492 v -39.48385 z"
         style="fill:#353564;fill-rule:evenodd;stroke:none;stroke-linejoin:round"
         id="path911" />
      <path
         points="209.79067,112.00107 209.79067,151.48492 61.406149,151.48492 61.406149,112.00107 "
         d="m 61.406149,112.00107 148.384521,0 v 39.48385 l -148.384521,0 z"
         style="fill:#e9e9ff;fill-rule:evenodd;stroke:none;stroke-linejoin:round"
         id="path921" />
      <path
         points="148.86459,178.59854 209.79067,151.48492 61.406149,151.48492 0.48006918,178.59854 "
         d="m 0.48006918,178.59854 148.38452082,0 60.92608,-27.11362 -148.384521,0 z"
         style="fill:#afafde;fill-rule:evenodd;stroke:none;stroke-linejoin:round"
         id="path919" />
      <path
         points="148.86459,139.11469 209.79067,112.00107 61.406149,112.00107 0.48006918,139.11469 "
         d="m 0.48006918,139.11469 148.38452082,0 60.92608,-27.11362 -148.384521,0 z"
         style="fill:#4d4d9f;fill-rule:evenodd;stroke:none;stroke-linejoin:round"
         id="path913" />
      <path
         points="148.86459,178.59854 209.79067,151.48492 209.79067,112.00107 148.86459,139.11469 "
         d="m 148.86459,139.11469 v 39.48385 l 60.92608,-27.11362 v -39.48385 z"
         style="fill:#d7d7ff;fill-rule:evenodd;stroke:none;stroke-linejoin:round"
         id="path917" />
      <path
         points="148.86459,139.11469 148.86459,178.59854 0.48006918,178.59854 0.48006918,139.11469 "
         d="m 0.48006918,139.11469 148.38452082,0 v 39.48385 l -148.38452082,0 z"
         style="fill:#8686bf;fill-rule:evenodd;stroke:none;stroke-linejoin:round"
         id="path915" />
    </g>
    <path
       id="rect937"
       d="M 61.406149,112.00107 H 209.79067 l 0.30606,-48.103647 -91.03423,-0.755955 -57.350288,1.133931 z"
       style="fill:#008080;fill-opacity:0.34513275;stroke-width:0.26458332" />
  </g>
</svg>
