<?xml version="1.0" standalone="no"?>
<svg
  width="600"
  height="600"
  viewBox="0 0 600 600"
  xmlns="http://www.w3.org/2000/svg"
>
  <g transform="translate(300,300)">
    <path d="M134,-175.8C160.4,-137.5,159.5,-82.7,147.5,-42.1C135.4,-1.5,112.3,25,98.3,63.8C84.3,102.6,79.4,153.7,55,171.5C30.6,189.2,-13.5,173.5,-64.7,161.8C-116,150.1,-174.5,142.3,-207.6,108.5C-240.7,74.6,-248.4,14.7,-230.6,-32.8C-212.9,-80.4,-169.8,-115.7,-127.1,-151.1C-84.4,-186.6,-42.2,-222.3,5.8,-229.2C53.8,-236.1,107.6,-214.2,134,-175.8Z" fill="#ec594e" />
  </g>
</svg>
  